<svg preserveAspectRatio="xMidYMid meet" xmlns="http://www.w3.org/2000/svg" width="48" height="48" fill="none" viewBox="0 0 64 63"><!--?lit$177851884$--><g><path fill="#fff" d="M59.5 22.63H54v-5.405H30.861l-5.5-5.406H10v37.838h20.48a13.49 13.49 0 0 0 4.575 5.405H7.25c-.73 0-1.429-.285-1.945-.792a2.68 2.68 0 0 1-.805-1.91V9.116c0-.717.29-1.405.805-1.911a2.775 2.775 0 0 1 1.945-.792h20.389l5.5 5.405H56.75c.73 0 1.429.285 1.944.792.516.507.806 1.194.806 1.911v8.108Zm-24.75 5.405H59.5v16.079c0 2.675-1.378 5.178-3.674 6.662l-8.701 5.632-8.701-5.632a8.037 8.037 0 0 1-2.692-2.874 7.873 7.873 0 0 1-.982-3.786v-16.08Zm5.5 16.079c0 .854.446 1.659 1.199 2.148l5.676 3.676 5.676-3.676c.365-.232.666-.55.876-.925.21-.375.32-.796.323-1.224V33.442H40.25v10.672Z"></path><path fill="#B9F736" d="M34.75 28.04H59.5v16.077c0 2.676-1.378 5.178-3.674 6.662l-8.701 5.633-8.701-5.633a8.036 8.036 0 0 1-2.692-2.874 7.873 7.873 0 0 1-.982-3.785V28.04Zm5.5 16.077c0 .854.446 1.66 1.199 2.149l5.676 3.675 5.676-3.675c.365-.233.666-.55.876-.926.21-.375.32-.795.323-1.223V33.444H40.25v10.673Z"></path></g></svg>