<svg preserveAspectRatio="xMidYMid meet" xmlns="http://www.w3.org/2000/svg" width="48" height="48" fill="none" viewBox="0 0 64 64"><!--?lit$177851884$--><g><path fill="#fff" d="M32 55.689a23.691 23.691 0 0 0 23.69-23.687A23.685 23.685 0 0 0 32 8.315 23.692 23.692 0 0 0 8.31 32.002 23.686 23.686 0 0 0 32 55.689Zm0 5.264c-15.99 0-28.955-12.962-28.955-28.951C3.045 16.012 16.01 3.05 32 3.05c15.99 0 28.955 12.962 28.955 28.95 0 15.99-12.964 28.952-28.955 28.952Z"></path><path fill="#B9F736" d="m32.442 20.3 4.38-2.921 7.997 11.988H18.944v-5.264h16.03L32.44 20.3h.002Zm-1.23 23.398-4.382 2.921-7.991-11.988h25.983v5.264H28.675l2.538 3.803Z"></path></g></svg>