<svg preserveAspectRatio="xMidYMid meet" xmlns="http://www.w3.org/2000/svg" width="48" height="48" fill="none" viewBox="0 0 64 64"><!--?lit$177851884$--><g><path fill="#fff" d="M32 10.003a22.004 22.004 0 0 1 21.83 19.248h5.535C57.985 15.357 46.26 4.504 32 4.504A27.462 27.462 0 0 0 10 15.5v-5.497H4.5v16.498H21v-5.5h-8.057A21.99 21.99 0 0 1 32 10.004ZM10 32.001H4.5a27.483 27.483 0 0 0 13.75 23.817v-6.646A21.956 21.956 0 0 1 10 32.001Zm44 2.75h5.5v24.746H54v-8.249H43V34.75h5.5V45.75H54V34.75ZM23.758 55.363l10.186-10.42a2.75 2.75 0 1 0-4.694-1.945h-5.5a8.25 8.25 0 1 1 14.223 5.692l-5.209 5.307h7.486v5.5h-16.5v-4.125l.008-.009Z"></path><path fill="#B9F736" d="M31.118 34.799a8.25 8.25 0 0 1 6.855 13.892l-5.208 5.307h7.485v5.5h-16.5v-4.125l.008-.009 10.186-10.42a2.75 2.75 0 0 0-2.213-4.68A2.75 2.75 0 0 0 29.25 43h-5.5a8.249 8.249 0 0 1 7.368-8.2ZM48.5 45.749H54V34.75h5.5v24.747H54v-8.249H43V34.75h5.5v10.999Z"></path></g></svg>